<svg width="49" height="49" viewBox="0 0 49 49" fill="none" xmlns="http://www.w3.org/2000/svg">
<rect x="0.837158" y="24.9292" width="33.9977" height="33.9977" transform="rotate(-45 0.837158 24.9292)" fill="#1A1A1A"/>
<path d="M35.5524 15.9041L37.0231 18.7665L39.8856 20.2372L37.0231 21.7079L35.5524 24.5704L34.0817 21.7079L31.2192 20.2372L34.0817 18.7665L35.5524 15.9041Z" fill="#F7FCFF"/>
<path d="M24.7408 6.28979L25.6894 8.13599L27.5356 9.08457L25.6894 10.0331L24.7408 11.8793L23.7922 10.0331L21.946 9.08457L23.7922 8.13599L24.7408 6.28979Z" fill="#F7FCFF"/>
<path d="M9.9423 21.0859L11.173 23.4812L13.5682 24.7118L11.173 25.9425L9.9423 28.3377L8.71163 25.9425L6.31641 24.7118L8.71163 23.4812L9.9423 21.0859Z" fill="#F7FCFF"/>
<path d="M25.4896 37.51L26.6307 39.7307L28.8514 40.8717L26.6307 42.0127L25.4896 44.2334L24.3486 42.0127L22.1279 40.8717L24.3486 39.7307L25.4896 37.51Z" fill="#F7FCFF"/>
<path fill-rule="evenodd" clip-rule="evenodd" d="M25.893 14.8931C26.107 14.8779 26.3231 14.8701 26.541 14.8701C31.5062 14.8701 35.5313 18.8952 35.5313 23.8604C35.5313 25.9251 34.8353 27.8272 33.6651 29.345C33.4511 29.3602 33.2351 29.3679 33.0172 29.3679C28.052 29.3679 24.0269 25.3428 24.0269 20.3776C24.0269 18.313 24.7228 16.4108 25.893 14.8931Z" fill="#1A1A1A"/>
<path fill-rule="evenodd" clip-rule="evenodd" d="M33.6651 29.3447C33.4511 29.3599 33.2351 29.3677 33.0173 29.3677C28.0521 29.3677 24.027 25.3426 24.027 20.3774C24.027 18.3126 24.7231 16.4104 25.8934 14.8926C21.2305 15.2246 17.5508 19.1125 17.5508 23.8599C17.5508 28.8251 21.5759 32.8502 26.5411 32.8502C29.4415 32.8502 32.0212 31.4768 33.6651 29.3447Z" fill="#F7FCFF"/>
</svg>
