<svg width="49" height="49" viewBox="0 0 49 49" fill="none" xmlns="http://www.w3.org/2000/svg">
<rect x="0.837158" y="24.9292" width="33.9977" height="33.9977" transform="rotate(-45 0.837158 24.9292)" fill="#FDFFD6"/>
<path d="M24.2527 11.9111L26.2527 11.9111L26.2527 15.7466L24.2527 15.7466L24.2527 11.9111Z" fill="#1A1A1A"/>
<path d="M13.291 18.9607L14.291 17.2286L17.6126 19.1464L16.6126 20.8784L13.291 18.9607Z" fill="#1A1A1A"/>
<path d="M13.915 31.9788L12.915 30.2467L16.2366 28.329L17.2366 30.061L13.915 31.9788Z" fill="#1A1A1A"/>
<path d="M25.5012 37.9473L23.5012 37.9473L23.5012 34.1118L25.5012 34.1118L25.5012 37.9473Z" fill="#1A1A1A"/>
<path d="M36.4631 30.8977L35.4631 32.6298L32.1415 30.712L33.1415 28.98L36.4631 30.8977Z" fill="#1A1A1A"/>
<path d="M35.8389 17.8794L36.8389 19.6114L33.5173 21.5292L32.5173 19.7971L35.8389 17.8794Z" fill="#1A1A1A"/>
<circle cx="24.8772" cy="24.9292" r="7.437" fill="#1A1A1A"/>
</svg>
